<svg data-v-242a0826="" id="Sales_Chart" baseProfile="basic" viewBox="0 0 300 300" xmlns="http://www.w3.org/2000/svg"><style>.svg-inner-style__bone-stroke{stroke:#1B2428;stroke-width:3px;fill:none;stroke-linecap:round;stroke-linejoin:round}.svg-inner-style__bone-color{fill:#ffffff}</style><g overflow="visible"><g display="none"><path stroke-linejoin="round" stroke-linecap="round" fill="none" d="M22.95 159.95l12-32.65H0V11.65h133.5M0 37.15h8.6M0 67.2h8.6M0 97.25h8.6m26.35 30.05H57.6V117m-31 10.3V117m31 10.3h30.95V117m0 10.3h31V117m26.6-93.4v103.7h-26.6m-8.3 0L123.2 160M33.2 0h79.75" transform="translate(76.95 70)" class="svg-inner-style__bone-stroke"></path><animate attributeName="display" repeatCount="0" begin="indefinite" dur="1.6s" keyTimes="0;.8;1" values="none;inline;inline"></animate></g><g><path stroke-linejoin="round" stroke-linecap="round" fill="none" d="M119.55 117v10.3h26.6V11.65H0v25.5h8.6m14.35 122.8l12-32.65H0V37.15M0 67.2h8.6M0 97.25h8.6m26.35 30.05H57.6V117m-31 10.3V117m31 10.3h30.95V117m31 10.3h-8.3L123.2 160m-11.95-32.7h-22.7M33.2 0h79.75" transform="translate(76.95 70)" class="svg-inner-style__bone-stroke"></path><animate attributeName="display" repeatCount="0" begin="indefinite" dur="1.6s" keyTimes="0;.8;1" values="inline;none;none"></animate></g><g display="none"><path stroke-linejoin="round" stroke-linecap="round" fill="none" d="M0 128.95L40.65 70.8l20.2 23.6 23.2-31.6h25.85L156.35 0" transform="translate(77 68.3)" class="svg-inner-style__bone-stroke"></path><animate attributeName="display" repeatCount="0" begin="indefinite" dur="1.6s" keyTimes="0;.829;1" values="none;inline;inline"></animate></g><g display="none"><path stroke-linejoin="round" stroke-linecap="round" fill="none" d="M0 123.45L40.65 65.3l20.2 23.6 23.2-31.6h25.85L152.3 0" transform="translate(77 73.8)" class="svg-inner-style__bone-stroke"></path><animate attributeName="display" repeatCount="0" begin="indefinite" dur="1.6s" keyTimes="0;.8;.829;1" values="none;inline;none;none"></animate></g><g display="none"><path stroke-linejoin="round" stroke-linecap="round" fill="none" d="M0 115l40.65-58.15 20.2 23.6 23.2-31.6h25.85L146.05 0" transform="translate(77 82.25)" class="svg-inner-style__bone-stroke"></path><animate attributeName="display" repeatCount="0" begin="indefinite" dur="1.6s" keyTimes="0;.771;.8;1" values="none;inline;none;none"></animate></g><g display="none"><path stroke-linejoin="round" stroke-linecap="round" fill="none" d="M0 108.85L40.65 50.7l20.2 23.6 23.2-31.6h25.85L141.5 0" transform="translate(77 88.4)" class="svg-inner-style__bone-stroke"></path><animate attributeName="display" repeatCount="0" begin="indefinite" dur="1.6s" keyTimes="0;.743;.771;1" values="none;inline;none;none"></animate></g><g display="none"><path stroke-linejoin="round" stroke-linecap="round" fill="none" d="M0 101.55L40.65 43.4 60.85 67l23.2-31.6h25.85L136.1 0" transform="translate(77 95.7)" class="svg-inner-style__bone-stroke"></path><animate attributeName="display" repeatCount="0" begin="indefinite" dur="1.6s" keyTimes="0;.714;.743;1" values="none;inline;none;none"></animate></g><g display="none"><path stroke-linejoin="round" stroke-linecap="round" fill="none" d="M0 94.2l40.65-58.15 20.2 23.6 23.2-31.6h25.85L130.65 0" transform="translate(77 103.05)" class="svg-inner-style__bone-stroke"></path><animate attributeName="display" repeatCount="0" begin="indefinite" dur="1.6s" keyTimes="0;.686;.714;1" values="none;inline;none;none"></animate></g><g display="none"><path stroke-linejoin="round" stroke-linecap="round" fill="none" d="M0 86.9l40.65-58.15 20.2 23.6 23.2-31.6h25.85L125.25 0" transform="translate(77 110.35)" class="svg-inner-style__bone-stroke"></path><animate attributeName="display" repeatCount="0" begin="indefinite" dur="1.6s" keyTimes="0;.657;.686;1" values="none;inline;none;none"></animate></g><g display="none"><path stroke-linejoin="round" stroke-linecap="round" fill="none" d="M0 79.6l40.65-58.15 20.2 23.6 23.2-31.6h25.85L119.85 0" transform="translate(77 117.65)" class="svg-inner-style__bone-stroke"></path><animate attributeName="display" repeatCount="0" begin="indefinite" dur="1.6s" keyTimes="0;.629;.657;1" values="none;inline;none;none"></animate></g><g display="none"><path stroke-linejoin="round" stroke-linecap="round" fill="none" d="M0 72.3l40.65-58.15 20.2 23.6 23.2-31.6h25.85L114.45 0" transform="translate(77 124.95)" class="svg-inner-style__bone-stroke"></path><animate attributeName="display" repeatCount="0" begin="indefinite" dur="1.6s" keyTimes="0;.6;.629;1" values="none;inline;none;none"></animate></g><g display="none"><path stroke-linejoin="round" stroke-linecap="round" fill="none" d="M0 66.15L40.65 8l20.2 23.6L84.05 0h25" transform="translate(77 131.1)" class="svg-inner-style__bone-stroke"></path><animate attributeName="display" repeatCount="0" begin="indefinite" dur="1.6s" keyTimes="0;.571;.6;1" values="none;inline;none;none"></animate></g><g display="none"><path stroke-linejoin="round" stroke-linecap="round" fill="none" d="M0 66.15L40.65 8l20.2 23.6L84.05 0h19.6" transform="translate(77 131.1)" class="svg-inner-style__bone-stroke"></path><animate attributeName="display" repeatCount="0" begin="indefinite" dur="1.6s" keyTimes="0;.543;.571;1" values="none;inline;none;none"></animate></g><g display="none"><path stroke-linejoin="round" stroke-linecap="round" fill="none" d="M0 66.15L40.65 8l20.2 23.6L84.05 0h14.2" transform="translate(77 131.1)" class="svg-inner-style__bone-stroke"></path><animate attributeName="display" repeatCount="0" begin="indefinite" dur="1.6s" keyTimes="0;.514;.543;1" values="none;inline;none;none"></animate></g><g display="none"><path stroke-linejoin="round" stroke-linecap="round" fill="none" d="M0 66.15L40.65 8l20.2 23.6L84.05 0h8.8" transform="translate(77 131.1)" class="svg-inner-style__bone-stroke"></path><animate attributeName="display" repeatCount="0" begin="indefinite" dur="1.6s" keyTimes="0;.486;.514;1" values="none;inline;none;none"></animate></g><g display="none"><path stroke-linejoin="round" stroke-linecap="round" fill="none" d="M0 66.15L40.65 8l20.2 23.6L84.05 0h3.4" transform="translate(77 131.1)" class="svg-inner-style__bone-stroke"></path><animate attributeName="display" repeatCount="0" begin="indefinite" dur="1.6s" keyTimes="0;.457;.486;1" values="none;inline;none;none"></animate></g><g display="none"><path stroke-linejoin="round" stroke-linecap="round" fill="none" d="M0 63.4L40.65 5.25l20.2 23.6L82.05 0" transform="translate(77 133.85)" class="svg-inner-style__bone-stroke"></path><animate attributeName="display" repeatCount="0" begin="indefinite" dur="1.6s" keyTimes="0;.429;.457;1" values="none;inline;none;none"></animate></g><g display="none"><path stroke-linejoin="round" stroke-linecap="round" fill="none" d="M0 58.15L40.65 0l20.2 23.6L76.6 2.15" transform="translate(77 139.1)" class="svg-inner-style__bone-stroke"></path><animate attributeName="display" repeatCount="0" begin="indefinite" dur="1.6s" keyTimes="0;.4;.429;1" values="none;inline;none;none"></animate></g><g display="none"><path stroke-linejoin="round" stroke-linecap="round" fill="none" d="M0 58.15L40.65 0l20.2 23.6L71.2 9.5" transform="translate(77 139.1)" class="svg-inner-style__bone-stroke"></path><animate attributeName="display" repeatCount="0" begin="indefinite" dur="1.6s" keyTimes="0;.371;.4;1" values="none;inline;none;none"></animate></g><g display="none"><path stroke-linejoin="round" stroke-linecap="round" fill="none" d="M0 58.15L40.65 0l20.2 23.6 4.95-6.75" transform="translate(77 139.1)" class="svg-inner-style__bone-stroke"></path><animate attributeName="display" repeatCount="0" begin="indefinite" dur="1.6s" keyTimes="0;.343;.371;1" values="none;inline;none;none"></animate></g><g display="none"><path stroke-linejoin="round" stroke-linecap="round" fill="none" d="M0 58.15L40.65 0 60.4 23.1" transform="translate(77 139.1)" class="svg-inner-style__bone-stroke"></path><animate attributeName="display" repeatCount="0" begin="indefinite" dur="1.6s" keyTimes="0;.314;.343;1" values="none;inline;none;none"></animate></g><g display="none"><path stroke-linejoin="round" stroke-linecap="round" fill="none" d="M0 58.15L40.65 0 55 16.8" transform="translate(77 139.1)" class="svg-inner-style__bone-stroke"></path><animate attributeName="display" repeatCount="0" begin="indefinite" dur="1.6s" keyTimes="0;.286;.314;1" values="none;inline;none;none"></animate></g><g display="none"><path stroke-linejoin="round" stroke-linecap="round" fill="none" d="M0 58.15L40.65 0l8.95 10.45" transform="translate(77 139.1)" class="svg-inner-style__bone-stroke"></path><animate attributeName="display" repeatCount="0" begin="indefinite" dur="1.6s" keyTimes="0;.257;.286;1" values="none;inline;none;none"></animate></g><g display="none"><path stroke-linejoin="round" stroke-linecap="round" fill="none" d="M0 58.15L40.65 0l3.55 4.15" transform="translate(77 139.1)" class="svg-inner-style__bone-stroke"></path><animate attributeName="display" repeatCount="0" begin="indefinite" dur="1.6s" keyTimes="0;.229;.257;1" values="none;inline;none;none"></animate></g><g display="none"><path stroke-linejoin="round" stroke-linecap="round" fill="none" d="M0 55.5L38.8 0" transform="translate(77 141.75)" class="svg-inner-style__bone-stroke"></path><animate attributeName="display" repeatCount="0" begin="indefinite" dur="1.6s" keyTimes="0;.2;.229;1" values="none;inline;none;none"></animate></g><g display="none"><path stroke-linejoin="round" stroke-linecap="round" fill="none" d="M0 47.75L33.4 0" transform="translate(77 149.5)" class="svg-inner-style__bone-stroke"></path><animate attributeName="display" repeatCount="0" begin="indefinite" dur="1.6s" keyTimes="0;.171;.2;1" values="none;inline;none;none"></animate></g><g display="none"><path stroke-linejoin="round" stroke-linecap="round" fill="none" d="M0 40.05L28 0" transform="translate(77 157.2)" class="svg-inner-style__bone-stroke"></path><animate attributeName="display" repeatCount="0" begin="indefinite" dur="1.6s" keyTimes="0;.143;.171;1" values="none;inline;none;none"></animate></g><g display="none"><path stroke-linejoin="round" stroke-linecap="round" fill="none" d="M0 32.25L22.55 0" transform="translate(77 165)" class="svg-inner-style__bone-stroke"></path><animate attributeName="display" repeatCount="0" begin="indefinite" dur="1.6s" keyTimes="0;.114;.143;1" values="none;inline;none;none"></animate></g><g display="none"><path stroke-linejoin="round" stroke-linecap="round" fill="none" d="M0 24.55L17.15 0" transform="translate(77 172.7)" class="svg-inner-style__bone-stroke"></path><animate attributeName="display" repeatCount="0" begin="indefinite" dur="1.6s" keyTimes="0;.086;.114;1" values="none;inline;none;none"></animate></g><g display="none"><path stroke-linejoin="round" stroke-linecap="round" fill="none" d="M0 16.8L11.75 0" transform="translate(77 180.45)" class="svg-inner-style__bone-stroke"></path><animate attributeName="display" repeatCount="0" begin="indefinite" dur="1.6s" keyTimes="0;.057;.086;1" values="none;inline;none;none"></animate></g><g display="none"><path stroke-linejoin="round" stroke-linecap="round" fill="none" d="M0 9.1L6.35 0" transform="translate(77 188.15)" class="svg-inner-style__bone-stroke"></path><animate attributeName="display" repeatCount="0" begin="indefinite" dur="1.6s" keyTimes="0;.029;.057;1" values="none;inline;none;none"></animate></g><g><path stroke-linejoin="round" stroke-linecap="round" fill="none" d="M0 .4L.3 0" transform="translate(77.05 196.75)" class="svg-inner-style__bone-stroke"></path><animate attributeName="display" repeatCount="0" begin="indefinite" dur="1.6s" keyTimes="0;.029;1" values="inline;none;none"></animate></g></g></svg>