<svg data-v-242a0826="" baseProfile="basic" viewBox="0 0 300 300" xmlns="http://www.w3.org/2000/svg"><style>.svg-inner-style__bone-stroke{stroke:#1B2428;stroke-width:3px;fill:none;stroke-linecap:round;stroke-linejoin:round}.svg-inner-style__bone-color{fill:#ffffff}</style><g overflow="visible"><path fill="none" d="M188.15 250.5H112.9v-94.7h75.25v94.7zm-26.75-94.9v-10.4h9.1q6.25 0 10.7-4.45 4.45-4.45 4.45-10.75V65.65q0-6.3-4.45-10.7-4.45-4.45-10.7-4.45h-39.9q-6.25 0-10.7 4.45-4.45 4.4-4.45 10.7V130q0 6.3 4.45 10.75t10.7 4.45h9.1v10.4" class="svg-inner-style__bone-stroke"></path><path fill="none" d="M120.4 187.55q2.55-3.6 7.65-7.2 10.1-7.2 22.6-7.2 12.5 0 22.5 7.7 3.1 2.35 5.65 5.25l1.85 2.4m-56.1 47.75h50.9m-16.9-43.85h7.8m-3.9 0v8.8m-27.8-8.8h7.8m-3.9 0v8.8" class="svg-inner-style__bone-stroke"></path><g mask="url(#Water_Cooler_Bubble_Mask_)"><g display="none"><path fill="none" d="M174.2 64.1q0 .95-.7 1.6-.7.7-1.65.7t-1.6-.7q-.7-.65-.7-1.6 0-.95.7-1.65.65-.7 1.6-.7 1 0 1.65.7.7.7.7 1.65z" class="svg-inner-style__bone-stroke"></path><animate attributeName="display" repeatCount="0" begin="indefinite" dur="1.7s" keyTimes="0;.475;.5;1" values="none;inline;none;none"></animate></g><g display="none"><g transform="translate(171.85 89.35)"><animateTransform attributeName="transform" additive="replace" type="translate" repeatCount="0" begin="indefinite" dur="1.7s" keyTimes="0;.05;.475;1" values="171.85,89.35;171.85,89.35;171.85,64.05;171.85,64.05"></animateTransform><path fill="none" d="M2.35.05q0 .95-.7 1.6-.7.7-1.65.7t-1.6-.7Q-2.3 1-2.3.05q0-.95.7-1.65.65-.7 1.6-.7 1 0 1.65.7.7.7.7 1.65z" class="svg-inner-style__bone-stroke"></path></g><animate attributeName="display" repeatCount="0" begin="indefinite" dur="1.7s" keyTimes="0;.05;.475;1" values="none;inline;none;none"></animate></g><g display="none"><g transform="translate(150.3 101.05)"><path fill="none" d="M2.35.05q0 .95-.7 1.6-.7.7-1.65.7t-1.6-.7Q-2.3 1-2.3.05q0-.95.7-1.65.65-.7 1.6-.7 1 0 1.65.7.7.7.7 1.65z" class="svg-inner-style__bone-stroke"></path><animateTransform attributeName="transform" additive="replace" type="translate" repeatCount="0" begin="indefinite" dur="1.7s" keyTimes="0;.725;.975;1" values="150.3,101.05;150.3,101.05;150.3,61.85;150.3,61.85"></animateTransform></g><animate attributeName="display" repeatCount="0" begin="indefinite" dur="1.7s" keyTimes="0;.725;1" values="none;inline;inline"></animate></g><g display="none"><path fill="none" d="M146.1 59.45q0 .95-.7 1.6-.7.7-1.65.7t-1.6-.7q-.7-.65-.7-1.6 0-.95.7-1.65.65-.7 1.6-.7 1 0 1.65.7.7.7.7 1.65z" class="svg-inner-style__bone-stroke"></path><animate attributeName="display" repeatCount="0" begin="indefinite" dur="1.7s" keyTimes="0;.475;.5;1" values="none;inline;none;none"></animate></g><g display="none"><g transform="translate(143.75 90.8)"><path fill="none" d="M2.35.05q0 .95-.7 1.6-.7.7-1.65.7t-1.6-.7Q-2.3 1-2.3.05q0-.95.7-1.65.65-.7 1.6-.7 1 0 1.65.7.7.7.7 1.65z" class="svg-inner-style__bone-stroke"></path><animateTransform attributeName="transform" additive="replace" type="translate" repeatCount="0" begin="indefinite" dur="1.7s" keyTimes="0;.2;.475;1" values="143.75,90.8;143.75,90.8;143.75,59.4;143.75,59.4"></animateTransform></g><animate attributeName="display" repeatCount="0" begin="indefinite" dur="1.7s" keyTimes="0;.2;.475;1" values="none;inline;none;none"></animate></g><g display="none"><path fill="none" d="M125.05 64.1q0 .95-.7 1.6-.7.7-1.65.7t-1.6-.7q-.7-.65-.7-1.6 0-.95.7-1.65.65-.7 1.6-.7 1 0 1.65.7.7.7.7 1.65z" class="svg-inner-style__bone-stroke"></path><animate attributeName="display" repeatCount="0" begin="indefinite" dur="1.7s" keyTimes="0;.475;.5;1" values="none;inline;none;none"></animate></g><g display="none"><g transform="translate(123.1 95.1)"><animateTransform attributeName="transform" additive="replace" type="translate" repeatCount="0" begin="indefinite" dur="1.7s" keyTimes="0;.3;.475;1" values="123.1,95.1;123.1,95.1;122.7,64.05;122.7,64.05"></animateTransform><path fill="none" d="M2.35.05q0 .95-.7 1.6-.7.7-1.65.7t-1.6-.7Q-2.3 1-2.3.05q0-.95.7-1.65.65-.7 1.6-.7 1 0 1.65.7.7.7.7 1.65z" class="svg-inner-style__bone-stroke"></path></g><animate attributeName="display" repeatCount="0" begin="indefinite" dur="1.7s" keyTimes="0;.3;.475;1" values="none;inline;none;none"></animate></g></g><mask id="Water_Cooler_Bubble_Mask_"><g display="none"><path d="M60.1-72.55q-8.7-2.65-19-2.65-8.75 0-20.55 3.2Q9-68.85.05-69q-11.1-.2-22.15-2.95-10.75-2.7-18.5-2.7-9.15 0-19.9 2.7-11.1 2.8-20.6 2.95-.1 0-.15 71.65-.05 35.8-.05 71.6l162.6 1V-69q-11.55-.55-21.2-3.55z" transform="translate(-47.5 141.35)" class="svg-inner-style__bone-color"></path><path d="M60.1-72.55q-8.7-2.65-19-2.65-8.75 0-20.55 3.2Q9-68.85.05-69q-11.1-.2-22.15-2.95-10.75-2.7-18.5-2.7-9.15 0-19.9 2.7-11.1 2.8-20.6 2.95-.1 0-.15 71.65-.05 35.8-.05 71.6l162.6 1V-69q-11.55-.55-21.2-3.55z" transform="translate(115 141.35)" class="svg-inner-style__bone-color"></path><animate attributeName="display" repeatCount="0" begin="indefinite" dur="1.7s" keyTimes="0;.975;1" values="none;inline;inline"></animate></g><g><g transform="translate(277.8 141.25)"><path d="M60.1-72.55q-8.7-2.65-19-2.65-8.75 0-20.55 3.2Q9-68.85.05-69q-11.1-.2-22.15-2.95-10.75-2.7-18.5-2.7-9.15 0-19.9 2.7-11.1 2.8-20.6 2.95-.1 0-.15 71.65-.05 35.8-.05 71.6l162.6 1V-69q-11.55-.55-21.2-3.55z" transform="translate(-81.25)" class="svg-inner-style__bone-color"></path><path d="M60.1-72.55q-8.7-2.65-19-2.65-8.75 0-20.55 3.2Q9-68.85.05-69q-11.1-.2-22.15-2.95-10.75-2.7-18.5-2.7-9.15 0-19.9 2.7-11.1 2.8-20.6 2.95-.1 0-.15 71.65-.05 35.8-.05 71.6l162.6 1V-69q-11.55-.55-21.2-3.55z" transform="translate(81.25)" class="svg-inner-style__bone-color"></path><animateTransform attributeName="transform" additive="replace" type="translate" repeatCount="0" begin="indefinite" dur="1.7s" keyTimes="0;.975;1" values="277.8,141.25;33.75,141.35;33.75,141.35"></animateTransform></g><animate attributeName="display" repeatCount="0" begin="indefinite" dur="1.7s" keyTimes="0;.975;1" values="inline;none;none"></animate></g></mask><g mask="url(#Water_Cooler_Tank_Mask_)"><g display="none"><path fill="none" d="M33.7 72.25q-10.15 0-20.3-2.9Q3.25 66.4-6.9 66.4q-10.2 0-20.35 2.95-10.15 2.9-20.3 2.9t-20.3-2.9Q-78 66.4-88.2 66.4q-10.15 0-20.3 2.95-10.15 2.9-20.3 2.9" class="svg-inner-style__bone-stroke"></path><path fill="none" d="M196.1 72.25q-10.15 0-20.3-2.9-10.15-2.95-20.3-2.95-10.2 0-20.35 2.95-10.15 2.9-20.3 2.9t-20.3-2.9Q84.4 66.4 74.2 66.4q-10.15 0-20.3 2.95-10.15 2.9-20.3 2.9" class="svg-inner-style__bone-stroke"></path><animate attributeName="display" repeatCount="0" begin="indefinite" dur="1.7s" keyTimes="0;.975;1" values="none;inline;inline"></animate></g><g><g transform="translate(277.9 69.3)"><path fill="none" d="M.05 2.95q-10.15 0-20.3-2.9Q-30.4-2.9-40.55-2.9q-10.2 0-20.35 2.95-10.15 2.9-20.3 2.9t-20.3-2.9q-10.15-2.95-20.35-2.95-10.15 0-20.3 2.95-10.15 2.9-20.3 2.9" class="svg-inner-style__bone-stroke"></path><path fill="none" d="M162.45 2.95q-10.15 0-20.3-2.9Q132-2.9 121.85-2.9q-10.2 0-20.35 2.95-10.15 2.9-20.3 2.9T60.9.05Q50.75-2.9 40.55-2.9 30.4-2.9 20.25.05 10.1 2.95-.05 2.95" class="svg-inner-style__bone-stroke"></path><animateTransform attributeName="transform" additive="replace" type="translate" repeatCount="0" begin="indefinite" dur="1.7s" keyTimes="0;.975;1" values="277.9,69.3;33.65,69.3;33.65,69.3"></animateTransform></g><animate attributeName="display" repeatCount="0" begin="indefinite" dur="1.7s" keyTimes="0;.975;1" values="inline;none;none"></animate></g><g display="none"><g transform="translate(107.65 110.85)"><animateTransform attributeName="transform" additive="replace" type="translate" repeatCount="0" begin="indefinite" dur="1.7s" keyTimes="0;.55;.975;1" values="107.65,110.85;107.65,110.85;193.4,110.85;193.4,110.85"></animateTransform><path fill="none" d="M-2.25 7.35v-5.2l-3 1.35v-7.25l2.9 1.85v-5.55l1.15.35q1.45.55 2.65 1.3 3.8 2.35 3.8 6.15l-1.1.9 1.05.9q-.3 1.3-1.35 2.6-2.1 2.6-6.1 2.6z" class="svg-inner-style__bone-stroke"></path><path fill="none" d="M1.35-.6q0 .35.25.6t.65.25Q2.6.25 2.8 0q.25-.25.25-.6t-.25-.6q-.2-.25-.55-.25-.4 0-.65.25t-.25.6z" class="svg-inner-style__bone-stroke"></path></g><animate attributeName="display" repeatCount="0" begin="indefinite" dur="1.7s" keyTimes="0;.55;1" values="none;inline;inline"></animate></g><g display="none"><path fill="none" d="M109.05 122.6v-11.1l6.4 2.8V98.9l-6.2 3.95v-11.8l-2.5.75q-3.05 1.1-5.55 2.7-8.1 5.05-8.1 13.15l2.25 1.9-2.2 1.9q.6 2.8 2.85 5.6 4.55 5.55 13.05 5.55z" class="svg-inner-style__bone-stroke"></path><path fill="none" d="M101.35 105.6q0 .75-.55 1.3-.55.5-1.3.5t-1.25-.5q-.55-.55-.55-1.3t.55-1.25q.5-.55 1.25-.55t1.3.55q.55.5.55 1.25z" class="svg-inner-style__bone-stroke"></path><animate attributeName="display" repeatCount="0" begin="indefinite" dur="1.7s" keyTimes="0;.475;.5;1" values="none;inline;none;none"></animate></g><g><g transform="translate(196.8 106.8)"><animateTransform attributeName="transform" additive="replace" type="translate" repeatCount="0" begin="indefinite" dur="1.7s" keyTimes="0;.475;1" values="196.8,106.8;104.25,106.8;104.25,106.8"></animateTransform><path fill="none" d="M3.861 12.752V3.816l5.164 2.245V-6.375L3.996-3.188v-9.519l-1.976.629q-2.469.898-4.49 2.155Q-9.024-5.837-9.024.718l1.841 1.527-1.796 1.527q.494 2.245 2.29 4.534 3.682 4.446 10.551 4.446z" class="svg-inner-style__bone-stroke"></path><path fill="none" d="M-2.335-.943q0 .584-.449 1.033-.449.404-1.077.404-.584 0-.988-.404-.45-.45-.45-1.033 0-.629.45-1.033.404-.449.988-.449.628 0 1.077.45.45.404.45 1.032z" class="svg-inner-style__bone-stroke"></path></g><animate attributeName="display" repeatCount="0" begin="indefinite" dur="1.7s" keyTimes="0;.475;1" values="inline;none;none"></animate></g></g><mask id="Water_Cooler_Tank_Mask_"><path d="M185.65 65.65q0-6.3-4.45-10.7-4.45-4.45-10.7-4.45h-39.9q-6.25 0-10.7 4.45-4.45 4.4-4.45 10.7V130q0 6.3 4.45 10.75t10.7 4.45h9.1v10.4h21.7v-10.4h9.1q6.25 0 10.7-4.45 4.45-4.45 4.45-10.75V65.65z" class="svg-inner-style__bone-color"></path></mask><g mask="url(#Water_Cooler_Wave_Mask_)"><g transform="translate(168.95 156.25)"><animateTransform attributeName="transform" additive="replace" type="translate" repeatCount="0" begin="indefinite" dur="1.7s" keyTimes="0;.975;1" values="168.95,156.25;168.95,98.9;168.95,98.9"></animateTransform><path fill="none" d="M2.9-60.25q0 1.75 1.4 3.55 1.35 1.75 1.4 3.55 0 1.75-1.4 3.5-1.45 1.8-1.4 3.55 0 1.8 1.4 3.55 1.35 1.8 1.4 3.55 0 1.75-1.4 3.55-1.45 1.75-1.4 3.55 0 1.75 1.4 3.55 1.35 1.75 1.4 3.55 0 1.75-1.4 3.55-1.45 1.75-1.4 3.5 0 1.8 1.4 3.55 1.35 1.8 1.4 3.55 0 1.8-1.4 3.55-1.45 1.75-1.4 3.55 0 1.8 1.4 3.55 1.35 1.75 1.4 3.55 0 1.75-1.4 3.55-1.45 1.75-1.4 3.55 0 1.75 1.4 3.5 1.35 1.8 1.4 3.55 0 1.8-1.4 3.55-1.45 1.8-1.4 3.55 0 1.8 1.4 3.55 1.35 1.8 1.4 3.55 0 1.75-1.4 3.55Q2.85 37.2 2.9 39q0 1.75 1.4 3.55 1.35 1.75 1.4 3.5 0 1.8-1.4 3.55-1.45 1.8-1.4 3.55 0 1.8 1.4 3.55 1.35 1.8 1.4 3.55M-5.7-60.25q0 1.75 1.4 3.55 1.4 1.75 1.4 3.55 0 1.75-1.4 3.5-1.4 1.8-1.4 3.55 0 1.8 1.4 3.55 1.4 1.8 1.4 3.55 0 1.75-1.4 3.55-1.4 1.75-1.4 3.55 0 1.75 1.4 3.55 1.4 1.75 1.4 3.55 0 1.75-1.4 3.55-1.4 1.75-1.4 3.5 0 1.8 1.4 3.55 1.4 1.8 1.4 3.55 0 1.8-1.4 3.55-1.4 1.75-1.4 3.55 0 1.8 1.4 3.55 1.4 1.75 1.4 3.55 0 1.75-1.4 3.55-1.4 1.75-1.4 3.55 0 1.75 1.4 3.5 1.4 1.8 1.4 3.55 0 1.8-1.4 3.55-1.4 1.8-1.4 3.55 0 1.8 1.4 3.55 1.4 1.8 1.4 3.55 0 1.75-1.4 3.55Q-5.7 37.2-5.7 39q0 1.75 1.4 3.55 1.4 1.75 1.4 3.5 0 1.8-1.4 3.55-1.4 1.8-1.4 3.55 0 1.8 1.4 3.55 1.4 1.8 1.4 3.55" class="svg-inner-style__bone-stroke"></path></g></g><mask id="Water_Cooler_Wave_Mask_"><path d="M176.4 145.15v-20.3l-16.35-21.45v41.75h16.35z" class="svg-inner-style__bone-color"></path></mask></g></svg>